<?xml version="1.0" encoding="UTF-8"?>
<svg version="1.1" xmlns="http://www.w3.org/2000/svg" width="500" height="500">
<path d="M0 0 C2.1616562 1.54404014 2.8688454 2.52067424 3.57060909 5.08538342 C4.12646011 8.85838506 4.13440373 12.58002884 4.12025452 16.38386536 C4.12153615 17.64596589 4.12153615 17.64596589 4.12284368 18.93356341 C4.12448993 21.75105942 4.1189911 24.56849581 4.11352539 27.38598633 C4.11324331 29.40640257 4.11340166 31.42681892 4.1139679 33.44723511 C4.11425505 38.93231025 4.10837152 44.41736357 4.10139394 49.90243363 C4.0951468 55.63463623 4.09455552 61.36683932 4.09336853 67.0990448 C4.09025924 77.95387709 4.08205124 88.80869933 4.07201904 99.66352719 C4.06084545 112.02132687 4.05534431 124.37912702 4.05032361 136.73693049 C4.03986831 162.15795924 4.02227662 187.57897906 4 213 C4.66 213 5.32 213 6 213 C6 225.87 6 238.74 6 252 C5.34 252 4.68 252 4 252 C3.896875 252.598125 3.79375 253.19625 3.6875 253.8125 C2.86684202 256.42368447 2.25738505 257.44318272 0 259 C-4.95756044 259.51043993 -7.4514099 258.49708192 -11.5 255.6875 C-15.23929946 253.12479045 -18.93787873 251.00835312 -23 249 C-25.62864788 247.5203568 -28.21978881 245.97905517 -30.8125 244.4375 C-31.55169678 244.00058838 -32.29089355 243.56367676 -33.05249023 243.11352539 C-35.3693646 241.74409547 -37.68480106 240.37226017 -40 239 C-42.85281258 237.31019844 -45.70681514 235.62244324 -48.5625 233.9375 C-49.61038696 233.3189917 -49.61038696 233.3189917 -50.67944336 232.68798828 C-55.54167292 229.82917478 -60.44681584 227.05572293 -65.375 224.3125 C-70.85651885 221.26116541 -76.16602391 218.03073448 -81.4296875 214.61328125 C-84.93565359 212.41272807 -88.55994357 210.47034054 -92.20703125 208.515625 C-98.5616898 205.06722288 -104.75418786 201.32840035 -110.9765625 197.6484375 C-112.40089393 196.80704153 -113.82537645 195.96590127 -115.25 195.125 C-115.96833008 194.70081787 -116.68666016 194.27663574 -117.42675781 193.83959961 C-123.03135689 190.54193147 -128.69186925 187.35369914 -134.37939453 184.20166016 C-139.27181136 181.46921287 -143.95605326 178.49678114 -148.5703125 175.3125 C-151.46717424 173.74763578 -153.71473145 173.19171328 -157 173 C-159.1700834 173.81442058 -159.1700834 173.81442058 -161 175.25 C-164.2174646 177.52903743 -167.46812131 179.23804697 -171 181 C-174.8112079 183.09044828 -178.59261832 185.2329369 -182.375 187.375 C-183.37789062 187.93960938 -184.38078125 188.50421875 -185.4140625 189.0859375 C-189.67377267 191.49456943 -193.91176566 193.90877807 -198.0390625 196.5390625 C-201.97738016 199.03845732 -206.05313381 201.24615256 -210.15722656 203.45996094 C-214.76345944 205.9553334 -219.31729453 208.54236655 -223.875 211.125 C-225.35504517 211.96260864 -225.35504517 211.96260864 -226.86499023 212.81713867 C-238.33527311 219.31394642 -249.78496655 225.8474293 -261.2109375 232.421875 C-261.84765381 232.78756592 -262.48437012 233.15325684 -263.14038086 233.5300293 C-264.79097117 234.47831708 -266.44046154 235.42851873 -268.08984375 236.37890625 C-276.52312573 241.07664051 -276.52312573 241.07664051 -280.5 240.4375 C-284.06060334 238.97510934 -286.85691872 237.2068443 -290 235 C-290.83660156 234.58363281 -291.67320312 234.16726563 -292.53515625 233.73828125 C-297.24891632 231.3734298 -301.79622004 228.73961934 -306.375 226.125 C-315.99274483 220.65155648 -325.68780587 215.33833115 -335.45654297 210.13916016 C-336.4157666 209.62530762 -337.37499023 209.11145508 -338.36328125 208.58203125 C-339.21188721 208.13061768 -340.06049316 207.6792041 -340.93481445 207.21411133 C-343 206 -343 206 -345 204 C-345.9099134 199.03683598 -345.9099134 199.03683598 -345 196 C-342.38117428 193.34340276 -339.27671162 191.73808181 -336 190 C-335.11054688 189.50757813 -334.22109375 189.01515625 -333.3046875 188.5078125 C-331.45243701 187.48933858 -329.59415517 186.48176856 -327.73046875 185.484375 C-324.39362689 183.6703551 -321.15381703 181.72197298 -317.90625 179.75390625 C-308.64831376 174.1667915 -299.31791817 168.7059468 -289.875 163.4375 C-284.13402922 160.2332861 -278.47494065 156.91739829 -272.85058594 153.51318359 C-267.01464653 149.98825191 -261.11619508 146.57582289 -255.21020508 143.16992188 C-249.74747092 140.01772808 -244.30553578 136.83230844 -238.875 133.625 C-234.10240356 130.80786482 -229.31409506 128.04130779 -224.453125 125.37890625 C-221.02149015 123.44997774 -217.63851204 121.44098047 -214.25 119.4375 C-206.70467946 114.97662711 -199.10732004 110.61194685 -191.48339844 106.28686523 C-186.41294624 103.40404396 -181.39423953 100.44842146 -176.39916992 97.43701172 C-172.83620602 95.30293158 -169.23884536 93.2339368 -165.625 91.1875 C-164.94050781 90.79369141 -164.25601563 90.39988281 -163.55078125 89.99414062 C-157.50878317 86.57425239 -157.50878317 86.57425239 -154 86 C-151.265625 87.0390625 -151.265625 87.0390625 -148.25 88.625 C-147.18523437 89.18445313 -146.12046875 89.74390625 -145.0234375 90.3203125 C-141.94473067 92.03070519 -138.9458733 93.80825575 -135.98828125 95.71875 C-133.70498835 97.19010574 -131.3894932 98.59879979 -129.0625 100 C-127.93521484 100.680625 -127.93521484 100.680625 -126.78515625 101.375 C-123.72755412 103.15895861 -120.63739946 104.87616043 -117.5402832 106.59033203 C-112.86808692 109.18305297 -108.21593564 111.81130365 -103.5625 114.4375 C-102.58990234 114.98470703 -101.61730469 115.53191406 -100.61523438 116.09570312 C-95.28190899 119.10616401 -89.99477277 122.17651732 -84.75550842 125.34776306 C-81.74594281 127.15233583 -78.71826622 128.92342272 -75.68579102 130.68920898 C-74.61740494 131.31157944 -73.54901886 131.93394989 -72.44825745 132.57518005 C-71.64033249 133.04537064 -70.83240753 133.51556122 -70 134 C-70.00888245 132.83568451 -70.01776489 131.67136902 -70.0269165 130.47177124 C-70.10802789 119.49545072 -70.1679778 108.51919107 -70.20724869 97.54263878 C-70.22811706 91.89955523 -70.25642148 86.25671376 -70.30175781 80.61376953 C-70.34524161 75.16727954 -70.36914275 69.7210223 -70.37950897 64.2743721 C-70.38689573 62.19714316 -70.40132037 60.11992686 -70.42292023 58.04279709 C-70.45198749 55.13160494 -70.45595456 52.22137267 -70.45410156 49.31005859 C-70.46848267 48.45266083 -70.48286377 47.59526306 -70.49768066 46.71188354 C-70.46059669 41.32207381 -69.55918821 38.29383888 -66 34 C-64.31640625 32.6015625 -64.31640625 32.6015625 -62.5625 31.625 C-61.87542969 31.22796875 -61.18835938 30.8309375 -60.48046875 30.421875 C-59.25263672 29.71804687 -59.25263672 29.71804687 -58 29 C-55.78922954 27.62872846 -53.58097226 26.25392898 -51.375 24.875 C-47.32861649 22.35703254 -43.25975421 20.1298771 -39 18 C-36.30995514 16.47671298 -33.6557669 14.89461382 -31 13.3125 C-29.49776234 12.4238593 -27.99515195 11.53584841 -26.4921875 10.6484375 C-25.74291992 10.2059668 -24.99365234 9.76349609 -24.22167969 9.30761719 C-20.86644798 7.33282367 -17.50003131 5.37823295 -14.125 3.4375 C-13.01382812 2.79683594 -11.90265625 2.15617188 -10.7578125 1.49609375 C-6.68263432 -0.71466155 -4.44186721 -1.33256016 0 0 Z " fill="#8B01C7" transform="translate(421,158)"/>
<path d="M0 0 C3.78934853 0.39089154 5.60763642 1.4855257 8.71875 3.64453125 C12.45804946 6.2072408 16.15662873 8.32367813 20.21875 10.33203125 C22.84739788 11.81167445 25.43853881 13.35297608 28.03125 14.89453125 C28.77044678 15.33144287 29.50964355 15.76835449 30.27124023 16.21850586 C32.5881146 17.58793578 34.90355106 18.95977108 37.21875 20.33203125 C40.07156258 22.02183281 42.92556514 23.70958801 45.78125 25.39453125 C46.82913696 26.01303955 46.82913696 26.01303955 47.89819336 26.64404297 C52.76042292 29.50285647 57.66556584 32.27630832 62.59375 35.01953125 C68.07526885 38.07086584 73.38477391 41.30129677 78.6484375 44.71875 C82.15440359 46.91930318 85.77869357 48.86169071 89.42578125 50.81640625 C95.7804398 54.26480837 101.97293786 58.0036309 108.1953125 61.68359375 C109.61964393 62.52498972 111.04412645 63.36612998 112.46875 64.20703125 C113.18708008 64.63121338 113.90541016 65.05539551 114.64550781 65.49243164 C120.25010689 68.79009978 125.91061925 71.97833211 131.59814453 75.13037109 C136.49056136 77.86281838 141.17480326 80.83525011 145.7890625 84.01953125 C148.68592424 85.58439547 150.93348145 86.14031797 154.21875 86.33203125 C156.3888334 85.51761067 156.3888334 85.51761067 158.21875 84.08203125 C161.4362146 81.80299382 164.68687131 80.09398428 168.21875 78.33203125 C172.0299579 76.24158297 175.81136832 74.09909435 179.59375 71.95703125 C180.59664062 71.39242187 181.59953125 70.8278125 182.6328125 70.24609375 C186.89252267 67.83746182 191.13051566 65.42325318 195.2578125 62.79296875 C199.19613016 60.29357393 203.27188381 58.08587869 207.37597656 55.87207031 C211.98220944 53.37669785 216.53604453 50.7896647 221.09375 48.20703125 C222.08044678 47.64862549 223.06714355 47.09021973 224.08374023 46.51489258 C235.55402311 40.01808483 247.00371655 33.48460195 258.4296875 26.91015625 C259.38476196 26.36161987 259.38476196 26.36161987 260.35913086 25.80200195 C262.00972117 24.85371417 263.65921154 23.90351252 265.30859375 22.953125 C273.74187573 18.25539074 273.74187573 18.25539074 277.71875 18.89453125 C281.27935334 20.35692191 284.07566872 22.12518695 287.21875 24.33203125 C288.47365234 24.95658203 288.47365234 24.95658203 289.75390625 25.59375 C294.46763593 27.9585862 299.01522902 30.59200628 303.59375 33.20703125 C310.00831632 36.86424953 316.43984533 40.47299273 322.9609375 43.9375 C324.04971191 44.51709473 325.13848633 45.09668945 326.26025391 45.69384766 C328.36511104 46.80954046 330.47405384 47.91756627 332.58740234 49.01708984 C333.54340332 49.52449707 334.4994043 50.0319043 335.484375 50.5546875 C336.74942871 51.21609741 336.74942871 51.21609741 338.04003906 51.89086914 C340.42544328 53.46875362 341.73716397 54.89524333 343.21875 57.33203125 C343.46875 60.20703125 343.46875 60.20703125 342.21875 63.33203125 C337.20763119 67.78892494 330.82681503 70.70212886 324.94921875 73.84765625 C321.61237689 75.66167615 318.37256703 77.61005827 315.125 79.578125 C305.86706376 85.16523975 296.53666817 90.62608445 287.09375 95.89453125 C281.35277922 99.09874515 275.69369065 102.41463296 270.06933594 105.81884766 C264.23339653 109.34377934 258.33494508 112.75620836 252.42895508 116.16210938 C246.96622092 119.31430317 241.52428578 122.49972281 236.09375 125.70703125 C231.32115356 128.52416643 226.53284506 131.29072346 221.671875 133.953125 C218.24024015 135.88205351 214.85726204 137.89105078 211.46875 139.89453125 C203.92342946 144.35540414 196.32607004 148.7200844 188.70214844 153.04516602 C183.63169624 155.92798729 178.61298953 158.88360979 173.61791992 161.89501953 C170.05495602 164.02909967 166.45759536 166.09809445 162.84375 168.14453125 C162.15925781 168.53833984 161.47476563 168.93214844 160.76953125 169.33789062 C154.72753317 172.75777886 154.72753317 172.75777886 151.21875 173.33203125 C148.484375 172.29296875 148.484375 172.29296875 145.46875 170.70703125 C143.87160156 169.86785156 143.87160156 169.86785156 142.2421875 169.01171875 C139.16348067 167.30132606 136.1646233 165.5237755 133.20703125 163.61328125 C130.92373835 162.14192551 128.6082432 160.73323146 126.28125 159.33203125 C125.52972656 158.87828125 124.77820313 158.42453125 124.00390625 157.95703125 C120.94630412 156.17307264 117.85614946 154.45587082 114.7590332 152.74169922 C110.08683692 150.14897828 105.43468564 147.5207276 100.78125 144.89453125 C99.80865234 144.34732422 98.83605469 143.80011719 97.83398438 143.23632812 C92.50065899 140.22586724 87.21352277 137.15551393 81.97425842 133.98426819 C78.96469281 132.17969542 75.93701622 130.40860853 72.90454102 128.64282227 C71.83615494 128.02045181 70.76776886 127.39808136 69.66700745 126.7568512 C68.45512001 126.05156532 68.45512001 126.05156532 67.21875 125.33203125 C67.22763245 126.49634674 67.23651489 127.66066223 67.2456665 128.86026001 C67.32677789 139.83658053 67.3867278 150.81284018 67.42599869 161.78939247 C67.44686706 167.43247602 67.47517148 173.07531749 67.52050781 178.71826172 C67.56399161 184.16475171 67.58789275 189.61100895 67.59825897 195.05765915 C67.60564573 197.13488809 67.62007037 199.21210439 67.64167023 201.28923416 C67.67073749 204.20042631 67.67470456 207.11065858 67.67285156 210.02197266 C67.68723267 210.87937042 67.70161377 211.73676819 67.71643066 212.62014771 C67.67934669 218.00995744 66.77793821 221.03819237 63.21875 225.33203125 C61.53515625 226.73046875 61.53515625 226.73046875 59.78125 227.70703125 C58.75064453 228.30257812 58.75064453 228.30257812 57.69921875 228.91015625 C56.88066406 229.379375 56.06210938 229.84859375 55.21875 230.33203125 C53.00797954 231.70330279 50.79972226 233.07810227 48.59375 234.45703125 C44.54736649 236.97499871 40.47850421 239.20215415 36.21875 241.33203125 C33.52870011 242.85532112 30.87475806 244.43781582 28.21875 246.01953125 C26.71246996 246.9079428 25.20595581 247.79595752 23.69921875 248.68359375 C21.51730463 249.9712654 19.337052 251.26129165 17.16259766 252.56152344 C15.29021088 253.68074789 13.41149697 254.788579 11.53125 255.89453125 C10.45488281 256.53519531 9.37851563 257.17585938 8.26953125 257.8359375 C4.49327022 259.68780431 1.12540796 260.80869574 -3.03125 259.76953125 C-5.60069563 257.6589152 -5.92067621 255.51605349 -6.78125 252.33203125 C-7.00482941 249.07108879 -7.00482941 249.07108879 -6.96887207 245.47702026 C-6.96543132 244.81213002 -6.96199057 244.14723979 -6.95844555 243.46220136 C-6.94987721 242.01239779 -6.9367384 240.56261562 -6.91955471 239.11288857 C-6.8820455 235.91366718 -6.86772066 232.71443923 -6.85147333 229.51505029 C-6.84247749 227.79344318 -6.83231429 226.07184182 -6.82106161 224.35024798 C-6.7644353 215.36339511 -6.80515062 206.3777113 -6.85683155 197.39092278 C-6.87328385 194.52562367 -6.88834304 191.66032016 -6.90303802 188.79501152 C-6.92359718 184.81015701 -6.94474284 180.82530636 -6.96644592 176.84045792 C-7.0010129 170.49080135 -7.03420575 164.14113798 -7.06726074 157.79147339 C-7.11966464 147.75475363 -7.17295106 137.71803879 -7.2266326 127.68132579 C-7.32294499 109.66974456 -7.41784598 91.65815587 -7.51221704 73.64656436 C-7.54525441 67.34816038 -7.57872552 61.04975891 -7.61257172 54.75135922 C-7.63355094 50.83599349 -7.65423296 46.92062622 -7.67484856 43.00525856 C-7.6843925 41.20504373 -7.69406243 39.40482956 -7.70387459 37.60461617 C-7.71076207 36.33956906 -7.71076207 36.33956906 -7.7177887 35.04896545 C-7.72236839 34.23174224 -7.72694809 33.41451902 -7.73166656 32.57253146 C-7.73928438 31.00155644 -7.7448947 29.43057012 -7.74828339 27.85958028 C-7.7566179 24.31326908 -7.78887881 20.77235472 -7.89231873 17.2274437 C-7.91943436 15.98488941 -7.94654999 14.74233513 -7.9744873 13.46212769 C-8.00846367 12.39147001 -8.04244003 11.32081234 -8.07744598 10.21771049 C-7.57557421 5.32824194 -5.16569317 0.6166909 0 0 Z " fill="#8B01C7" transform="translate(115.78125,62.66796875)"/>
<path d="M0 0 C1.4042185 0.03518247 2.80852252 0.06710924 4.21289062 0.09570312 C7.62330815 0.17774066 11.029276 0.29250309 14.4375 0.4375 C11.78569707 3.20901805 9.1105673 5.50587416 5.953125 7.6796875 C5.09976563 8.27136719 4.24640625 8.86304688 3.3671875 9.47265625 C2.48289062 10.07980469 1.59859375 10.68695313 0.6875 11.3125 C-1.05821686 12.51688923 -2.80301969 13.72260447 -4.546875 14.9296875 C-5.40410156 15.51250488 -6.26132812 16.09532227 -7.14453125 16.69580078 C-9.55070321 18.36013644 -9.55070321 18.36013644 -11.51171875 20.20654297 C-17.51248767 25.57456696 -23.29158712 25.14553912 -31.0625 24.8125 C-32.26648438 24.78542969 -33.47046875 24.75835937 -34.7109375 24.73046875 C-37.6633411 24.66017343 -40.61196039 24.56182049 -43.5625 24.4375 C-39.81578165 20.5921838 -35.89723489 17.04442159 -31.8125 13.5625 C-31.24273437 13.07136719 -30.67296875 12.58023438 -30.0859375 12.07421875 C-28.89448524 11.05486515 -27.690743 10.04973484 -26.47631836 9.05786133 C-24.51157788 7.4418527 -24.51157788 7.4418527 -22.65063477 5.51049805 C-15.82895019 -0.84905423 -8.78921935 -0.38530077 0 0 Z " fill="#BB00CC" transform="translate(325.5625,222.5625)"/>
<path d="M0 0 C28.90554458 -2.37022661 28.90554458 -2.37022661 36.91918945 4.1953125 C39.23107787 6.47304766 41.40570955 8.82295953 43.49462891 11.30664062 C45.86131268 13.96887199 48.56145356 16.00512937 51.375 18.1875 C55.8873929 21.7747858 55.8873929 21.7747858 57 24 C43.27348446 25.29073925 31.96859663 26.03965184 20.86962891 17.06616211 C19.56000677 15.95595749 18.2619776 14.83192854 16.97607422 13.69433594 C13.63698035 10.83131253 10.02302146 8.35419472 6.4375 5.8125 C4.25916737 4.24201768 2.12249448 2.64670969 0 1 C0 0.67 0 0.34 0 0 Z " fill="#BA00CC" transform="translate(194,223)"/>
<path d="M0 0 C1.88138672 0.05414063 1.88138672 0.05414063 3.80078125 0.109375 C5.22970703 0.17898437 5.22970703 0.17898437 6.6875 0.25 C4.03569707 3.02151805 1.3605673 5.31837416 -1.796875 7.4921875 C-2.65023437 8.08386719 -3.50359375 8.67554688 -4.3828125 9.28515625 C-5.26710938 9.89230469 -6.15140625 10.49945313 -7.0625 11.125 C-8.80821686 12.32938923 -10.55301969 13.53510447 -12.296875 14.7421875 C-13.14378906 15.32500488 -13.99070312 15.90782227 -14.86328125 16.50830078 C-17.1808315 18.15636732 -19.38926182 19.89609921 -21.609375 21.671875 C-24.74013895 24.04483919 -26.77907363 24.96111886 -30.8125 24.625 C-32.09640625 24.54378906 -32.09640625 24.54378906 -33.40625 24.4609375 C-34.0353125 24.39132813 -34.664375 24.32171875 -35.3125 24.25 C-28.2139404 16.93633253 -20.21839609 10.66333754 -12.3125 4.25 C-11.52746094 3.50492188 -10.74242187 2.75984375 -9.93359375 1.9921875 C-6.45898887 -0.31731142 -4.12899178 -0.15435483 0 0 Z " fill="#A101C9" transform="translate(333.3125,222.75)"/>
<path d="M0 0 C1.62490954 -0.02698189 3.24994633 -0.04638757 4.875 -0.0625 C5.77992188 -0.07410156 6.68484375 -0.08570313 7.6171875 -0.09765625 C10 0 10 0 12 1 C12 1.66 12 2.32 12 3 C12.99 3 13.98 3 15 3 C15.33 3.99 15.66 4.98 16 6 C20.78255965 9.12330426 25.62222809 11.11306249 31 13 C31 13.99 31 14.98 31 16 C32.98 16.33 34.96 16.66 37 17 C37 17.66 37 18.32 37 19 C38.65 19.33 40.3 19.66 42 20 C42 20.99 42 21.98 42 23 C42.66 23.33 43.32 23.66 44 24 C38.05943703 25.23618651 33.13880083 24.9543098 27.9453125 21.71484375 C24.25413604 19.1788135 20.70936207 16.45671577 17.18554688 13.69433594 C15.01447574 12.01122226 12.80877844 10.39215877 10.578125 8.7890625 C9.88114502 8.28802002 9.18416504 7.78697754 8.46606445 7.27075195 C7.79663818 6.78952881 7.12721191 6.30830566 6.4375 5.8125 C4.2604779 4.24043132 2.12239182 2.64663004 0 1 C0 0.67 0 0.34 0 0 Z " fill="#A001C9" transform="translate(194,223)"/>
<path d="M0 0 C-2.65180293 2.77151805 -5.3269327 5.06837416 -8.484375 7.2421875 C-9.33773438 7.83386719 -10.19109375 8.42554688 -11.0703125 9.03515625 C-11.95460938 9.64230469 -12.83890625 10.24945313 -13.75 10.875 C-15.49571686 12.07938923 -17.24051969 13.28510447 -18.984375 14.4921875 C-20.24991211 15.36375488 -20.24991211 15.36375488 -21.54101562 16.25292969 C-24.56112794 18.39867271 -27.45236305 20.68764903 -30.31738281 23.03564453 C-30.87264648 23.35388184 -31.42791016 23.67211914 -32 24 C-32.99 23.67 -33.98 23.34 -35 23 C-27.76255485 16.74284281 -20.52870488 10.51402986 -12.98828125 4.62109375 C-10.98959212 3.08056738 -10.98959212 3.08056738 -9.4921875 1.296875 C-6.74346011 -1.09207132 -3.47922779 -0.17110956 0 0 Z " fill="#7B01C5" transform="translate(340,223)"/>
<path d="M0 0 C4.54471276 1.21931318 7.72330867 3.04081614 11.38671875 5.87890625 C13.12217901 7.19722062 13.12217901 7.19722062 16 8 C16 8.66 16 9.32 16 10 C16.515625 10.0825 17.03125 10.165 17.5625 10.25 C23.47589852 12.06950724 27.97241073 15.36216993 32 20 C32 20.66 32 21.32 32 22 C33.32 22.33 34.64 22.66 36 23 C33.67412778 23.82996073 32.51658987 24.23653668 30.22338867 23.18652344 C29.32970581 22.52958496 29.32970581 22.52958496 28.41796875 21.859375 C27.73984131 21.37057861 27.06171387 20.88178223 26.36303711 20.37817383 C25.64510986 19.84087646 24.92718262 19.3035791 24.1875 18.75 C23.07483765 17.93921997 23.07483765 17.93921997 21.93969727 17.11206055 C20.39398806 15.98359598 18.85228767 14.84962179 17.31445312 13.71044922 C15.0702473 12.05191483 12.81178452 10.41526588 10.546875 8.78515625 C9.17666815 7.79484503 7.80685845 6.80398401 6.4375 5.8125 C5.78869873 5.34360352 5.13989746 4.87470703 4.47143555 4.39160156 C2.96225994 3.28615053 1.47805445 2.14672929 0 1 C0 0.67 0 0.34 0 0 Z " fill="#7801C5" transform="translate(194,223)"/>
<path d="M0 0 C2.125 0.375 2.125 0.375 4 1 C2.2126038 2.33905267 0.41995047 3.67109066 -1.375 5 C-2.37273437 5.7425 -3.37046875 6.485 -4.3984375 7.25 C-7 9 -7 9 -9 9 C-7.53471687 5.13698083 -5.55307561 3.95419158 -2 2 C-1.34 1.34 -0.68 0.68 0 0 Z " fill="#6502C8" transform="translate(336,223)"/>
<path d="M0 0 C4.38462134 0.50109958 6.8000997 1.98295115 10 5 C10 5.66 10 6.32 10 7 C5.04303419 5.76075855 2.88341534 4.21422242 0 0 Z " fill="#8901C6" transform="translate(222,240)"/>
</svg>
